<svg id="Layer_1" data-name="Layer 1" xmlns="http://www.w3.org/2000/svg" viewBox="0 0 1093.84 388.49"><defs><style>.cls-1,.cls-2,.cls-3{fill:#fff;}.cls-2{font-size:152.52px;}.cls-2,.cls-3{font-family:DMSerifDisplay-Regular, DM Serif Display;}.cls-3{font-size:170.62px;}</style></defs><title>white</title><path class="cls-1" d="M460.81,557.73c-4.7-3.51-9.5-6.81-15.2-8.54l0,0c-.39-.38-.72-.91-1.19-1.12-21-9.51-43.07-12.47-65.91-10.94-13.39.9-26.16,4.71-39.05,8a19.38,19.38,0,0,1-2,1c-33.59,12.93-61.26,33.69-82.53,62.76-14.21,19.43-24.37,40.75-28.65,64.63a137.77,137.77,0,0,0-3.6,21.54,16.3,16.3,0,0,0-1,2.63Q205,791.82,188.29,885.91c-.82,4.58,1.1,6,4.73,7.1,13.95,4.14,28,6.71,42.73,5.71,25.73-1.74,48.56-10.54,69.1-25.89,13.84-10.33,24-23.63,32.06-38.7,2.18-7.89,2.12-7.73-6-10.65a75,75,0,0,1-13.32-6c-20.79-12.61-29.09-32.67-25.08-56.68,2.79-16.65,11.31-29.91,23.11-41.43,2-2,3.18-3.61,1.17-6.6-7.09-10.52-8.57-22.3-6.33-34.5,2-10.76,6.82-20.37,13.24-29.19,9.36-9,19.25-17.15,31.79-21.45a24,24,0,0,0,6.62-2.9c8.86-6.34,13.53-4.57,16.46,5.89-4.49,9.56-7.57,11-17.41,8.19-2-.59-3.76.07-5.44.78-13.09,5.5-23.49,14-29.62,27.09-10.73,23-1.47,51,27.4,53.57,20.83,1.87,40.21-11.68,48.75-30,1.86-4,3-7.69.91-12.69s2.32-8.95,6.77-11.58c3.48-2.06,7.12-2,9.85.9,3.58,3.73,3.5,8.28.38,12.24a28.46,28.46,0,0,0-4.64,8.24c-4.77,13.48-12.79,24.61-24.64,32.69-19.39,13.22-39.72,17.53-61.41,5.54-2.9-1.6-4.93-.77-6.89,1.4-5.58,6.15-10.87,12.56-14.11,20.28-10.58,25.25-4.28,49.92,20.94,62,8.44,4.06,17.64,5,26.65,6.76l9.06.08a218.65,218.65,0,0,0,56.48-20.49c5.41-3.7,10.94-7.23,16.2-11.12a177.62,177.62,0,0,0,57.92-72,146.19,146.19,0,0,0,12.87-59.09c0-13.16-1.38-26.23-6.31-38.66-.84-1.93-.94-4.19-2.52-5.81a1,1,0,0,0-.11-.88c-2.39-10-7.85-18.31-14.07-26.23a41.84,41.84,0,0,0-9.13-10.5h0l-1.11-1.11-.95-1.17m0,0c-1.51-2.27-3.83-3.59-5.93-5.18l-1.46-1.44a14.44,14.44,0,0,0-5.18-3.74h0l-1.06-.94M225,695.13l.05-.06Zm2.52-9.27a3.3,3.3,0,0,0,.48-.62A3.3,3.3,0,0,1,227.49,685.86Zm1-1.66a3.87,3.87,0,0,1,.27-.43A3.87,3.87,0,0,0,228.54,684.2Zm-.45.84c.12-.21.23-.43.34-.64C228.32,684.61,228.21,684.83,228.09,685Z" transform="translate(-188.1 -536.73)"/><text class="cls-2" transform="translate(350.77 181.1) scale(0.94 1)">Pro Medical</text><text class="cls-3" transform="translate(346.77 343.28) scale(1.08 1)">Germany</text></svg>